<?xml version="1.0" standalone="no"?>
<!DOCTYPE svg PUBLIC "-//W3C//DTD SVG 20010904//EN"
 "http://www.w3.org/TR/2001/REC-SVG-20010904/DTD/svg10.dtd">
<svg version="1.0" xmlns="http://www.w3.org/2000/svg"
 width="594.000000pt" height="532.000000pt" viewBox="0 0 594.000000 532.000000"
 preserveAspectRatio="xMidYMid meet">

<g transform="translate(0.000000,532.000000) scale(0.100000,-0.100000)"
fill="#000000" stroke="none">
<path d="M2565 4275 c-16 -9 -40 -30 -52 -48 -21 -31 -23 -44 -23 -179 0 -145
0 -147 27 -179 41 -48 78 -59 203 -59 l110 0 0 -85 c0 -47 -3 -85 -8 -85 -4 0
-32 19 -62 42 -61 46 -164 96 -255 124 -46 15 -92 19 -200 18 -127 0 -147 -2
-220 -28 -120 -41 -203 -89 -283 -162 -159 -145 -246 -340 -247 -554 -1 -330
192 -602 513 -721 83 -31 94 -32 232 -33 98 -1 157 3 183 12 33 12 43 12 78
-2 35 -14 122 -16 732 -16 764 0 733 -3 781 63 30 40 37 256 11 323 -14 38
-15 47 -3 61 19 23 19 303 -1 326 -11 14 -11 23 3 57 12 30 16 74 16 165 l0
125 116 0 c128 0 164 11 199 58 17 23 20 45 23 167 3 167 -6 197 -78 233 -38
19 -60 22 -151 22 l-107 0 -4 139 c-3 156 -12 180 -79 213 -31 17 -87 18 -729
18 -595 0 -699 -3 -725 -15z m1420 -225 l0 -125 -689 -3 c-545 -2 -691 0 -698
10 -13 21 -10 222 4 236 9 9 173 12 698 10 l685 -3 0 -125z m343 -252 c13 -13
17 -202 6 -232 -6 -14 -76 -16 -694 -16 -460 0 -691 3 -695 10 -4 6 -6 60 -6
120 0 60 2 114 6 120 10 16 1367 14 1383 -2z m-1853 -94 c99 -24 201 -82 285
-161 63 -59 84 -88 123 -165 58 -116 77 -192 77 -302 0 -243 -133 -462 -346
-573 -106 -55 -188 -75 -304 -75 -183 0 -326 59 -455 187 -132 132 -195 279
-195 460 0 182 63 331 194 460 171 169 385 227 621 169z m1498 -276 c13 -11
17 -33 18 -113 1 -55 -1 -110 -5 -123 l-7 -22 -457 2 -457 3 -16 70 c-9 39
-26 93 -39 122 -12 28 -19 57 -15 62 10 17 956 15 978 -1z m12 -498 l0 -125
-484 -3 c-432 -2 -483 -1 -477 13 14 37 36 134 42 188 l7 57 456 -2 456 -3 0
-125z m1 -262 c4 -13 7 -68 5 -123 -2 -79 -6 -103 -19 -112 -20 -16 -1252 -19
-1252 -3 0 5 20 23 44 39 47 33 157 148 184 193 l16 28 507 0 508 0 7 -22z"/>
<path d="M2295 3530 c-27 -5 -30 -10 -35 -50 -5 -40 -8 -45 -36 -51 -129 -26
-206 -157 -155 -263 25 -50 60 -76 139 -101 l52 -17 0 -74 c0 -41 -1 -74 -3
-74 -16 0 -116 35 -132 46 -30 21 -39 17 -58 -26 -25 -58 -22 -77 14 -96 43
-22 118 -44 152 -44 25 0 27 -3 27 -45 0 -51 13 -63 65 -57 35 4 35 5 35 53 0
42 3 49 19 49 67 0 176 86 187 147 20 107 -23 176 -136 217 l-65 23 0 69 0 69
30 -3 c17 -2 45 -11 64 -20 32 -15 34 -14 48 4 7 10 19 36 25 57 10 32 9 40
-3 48 -15 10 -95 34 -141 44 -25 5 -28 9 -28 49 0 48 -11 56 -65 46z m-35
-285 c0 -59 -4 -64 -32 -38 -31 28 -18 93 19 93 9 0 13 -17 13 -55z m158 -277
c3 -27 -30 -64 -47 -53 -12 7 -15 88 -4 98 12 12 48 -20 51 -45z"/>
<path d="M2170 2273 c-77 -27 -467 -167 -585 -210 -82 -30 -195 -70 -250 -89
-55 -19 -110 -40 -122 -46 -45 -22 -47 -10 95 -452 44 -137 86 -253 94 -257
24 -16 52 -9 222 52 l169 61 51 -15 c28 -9 148 -46 266 -82 118 -37 235 -73
260 -80 25 -7 158 -48 295 -90 373 -115 385 -118 464 -99 61 13 94 34 406 254
187 131 378 266 425 298 155 107 434 305 487 344 93 68 123 173 76 263 -26 51
-47 69 -107 96 -40 17 -60 20 -107 15 -48 -6 -65 -3 -98 14 -74 37 -113 30
-367 -73 -127 -52 -235 -97 -241 -100 -5 -3 -28 3 -51 14 -23 12 -88 27 -144
35 -57 8 -134 18 -173 24 -38 5 -119 16 -180 25 -60 8 -249 35 -420 60 -281
41 -424 53 -465 38z m327 -123 c120 -17 245 -35 278 -40 33 -6 94 -14 135 -19
195 -24 575 -83 591 -92 66 -35 64 -134 -3 -170 -15 -8 -182 -14 -547 -18
-391 -5 -532 -10 -548 -19 -30 -16 -32 -67 -4 -82 12 -6 104 -10 229 -10 l210
0 123 -73 c154 -91 194 -107 268 -107 82 0 120 16 288 121 82 51 231 144 333
207 102 63 239 150 306 192 146 93 174 104 217 86 18 -7 39 -21 47 -31 19 -23
20 -96 1 -119 -8 -9 -149 -112 -315 -228 -166 -116 -327 -230 -358 -252 -32
-23 -95 -67 -140 -99 -46 -32 -159 -112 -253 -178 -93 -67 -183 -128 -200
-136 -66 -35 -154 -17 -590 122 -56 18 -455 140 -525 160 -25 7 -92 28 -149
45 l-105 32 -135 -50 c-177 -66 -188 -69 -194 -45 -16 55 -93 303 -123 393
-18 57 -31 107 -26 110 4 4 61 26 127 49 204 72 287 102 365 131 77 29 182 66
330 119 47 16 99 30 117 30 17 1 130 -13 250 -29z m1643 11 c0 -5 -28 -26 -62
-47 -35 -21 -141 -86 -236 -146 -95 -59 -176 -108 -180 -108 -4 0 -7 28 -7 62
l0 62 55 24 c119 53 396 162 413 162 9 0 17 -4 17 -9z m-763 -482 c-66 -41
-93 -50 -150 -51 -35 0 -66 8 -105 29 -95 48 -85 53 120 53 l183 0 -48 -31z"/>
</g>
</svg>
